<svg id="Layer_1" data-name="Layer 1" xmlns="http://www.w3.org/2000/svg" viewBox="0 0 37.46 32"><defs><style>.cls-1{fill:#ff0101;}</style></defs><path class="cls-1" d="M688.46,374.24a3.12,3.12,0,1,0-3.12-3.12A3.13,3.13,0,0,0,688.46,374.24Zm-16.39,10.15a7.81,7.81,0,1,0,7.81,7.81A7.72,7.72,0,0,0,672.07,384.39Zm0,13.27a5.47,5.47,0,1,1,5.47-5.46A5.53,5.53,0,0,1,672.07,397.66Zm9.06-15.61,3.74-3.75,1.25,1.25a10.93,10.93,0,0,0,8,3.28v-3.12a7.79,7.79,0,0,1-5.62-2.34l-3-3a3.85,3.85,0,0,0-2.5-.94,2.64,2.64,0,0,0-2.19.94l-4.37,4.37a3.11,3.11,0,0,0-.93,2.19,2.63,2.63,0,0,0,.93,2.18l5,4.37v7.81h3.12v-9.68Zm12.8,2.34a7.81,7.81,0,1,0,7.8,7.81A7.73,7.73,0,0,0,693.93,384.39Zm0,13.27a5.47,5.47,0,1,1,5.46-5.46A5.53,5.53,0,0,1,693.93,397.66Z" transform="translate(-664.27 -368)"/></svg>