<svg id="Layer_1" data-name="Layer 1" xmlns="http://www.w3.org/2000/svg" viewBox="0 0 36 32"><defs><style>.cls-1{fill:#ff0101;}</style></defs><path class="cls-1" d="M683,376a4,4,0,1,0-4-4A4,4,0,0,0,683,376Z" transform="translate(-665 -368)"/><path class="cls-1" d="M701,392v-4a14.26,14.26,0,0,1-11.2-5.36l-2.68-3.2a4,4,0,0,0-3.06-1.44H682a4,4,0,0,0-3.06,1.44l-2.68,3.2A14.33,14.33,0,0,1,665,388v4a18.19,18.19,0,0,0,14-6.5V390l-7.76,3.1a3.58,3.58,0,0,0,1.34,6.9H677v-1a5,5,0,0,1,5-5h6a1,1,0,0,1,0,2h-6a3,3,0,0,0-3,3v1h14.42a3.58,3.58,0,0,0,1.34-6.9L687,390v-4.5A18.19,18.19,0,0,0,701,392Z" transform="translate(-665 -368)"/></svg>