<svg id="Layer_1" data-name="Layer 1" xmlns="http://www.w3.org/2000/svg" viewBox="0 0 177.94 60.93"><defs><style>.cls-1{fill:#e60000;}.cls-2{fill:#ff0101;}.cls-3{fill:#020203;}</style></defs><path class="cls-1" d="M666.38,391a6,6,0,0,1-2.58-2.22,6.32,6.32,0,0,1-1-3.3h3a3.86,3.86,0,0,0,1.32,2.66,4.57,4.57,0,0,0,3.14,1,4.82,4.82,0,0,0,2.7-.7,2.35,2.35,0,0,0,1.07-2,2.09,2.09,0,0,0-.56-1.52,3.48,3.48,0,0,0-1.51-.82c-.63-.19-1.57-.38-2.77-.64H669a11.83,11.83,0,0,1-3-.82A5.75,5.75,0,0,1,664,381a4.72,4.72,0,0,1-.75-2.79,4.91,4.91,0,0,1,.81-2.85,6,6,0,0,1,2.33-2,8.37,8.37,0,0,1,3.39-.69,7.73,7.73,0,0,1,3.52.76,5.5,5.5,0,0,1,2.45,2,5.06,5.06,0,0,1,1,3h-3a3.42,3.42,0,0,0-1.26-2.29,4.19,4.19,0,0,0-2.7-.88,4.43,4.43,0,0,0-2.57.69,2.31,2.31,0,0,0-1,2,1.92,1.92,0,0,0,.57,1.46,4.4,4.4,0,0,0,1.51.82c.63.19,1.51.38,2.7.64a16.46,16.46,0,0,1,3.08.82,4.93,4.93,0,0,1,2.14,1.59,4.33,4.33,0,0,1,.81,2.79,5.27,5.27,0,0,1-.88,2.91,5.57,5.57,0,0,1-2.45,2,7.92,7.92,0,0,1-3.52.7A7.48,7.48,0,0,1,666.38,391Z" transform="translate(-594.16 -353.4)"/><path class="cls-1" d="M690,378.66a5.93,5.93,0,0,1,2.26,2.41,7.73,7.73,0,0,1,.82,3.74,7.24,7.24,0,0,1-.82,3.61,6.09,6.09,0,0,1-2.26,2.47,6.24,6.24,0,0,1-3.27.89,5.62,5.62,0,0,1-3-.76,5.16,5.16,0,0,1-1.82-2l.38-.63V397h-2.83V378h2.45l.57,3.36-.63-.63a7.39,7.39,0,0,1,1.88-2.09,5.38,5.38,0,0,1,3-.76A6.4,6.4,0,0,1,690,378.66Zm-5.85,2.15a3.36,3.36,0,0,0-1.38,1.59,5.66,5.66,0,0,0-.5,2.34,5.92,5.92,0,0,0,.5,2.41,4.37,4.37,0,0,0,1.38,1.65,3.8,3.8,0,0,0,2.08.57,3.93,3.93,0,0,0,2.07-.57,3.69,3.69,0,0,0,1.38-1.58,5.67,5.67,0,0,0,0-4.7,3.38,3.38,0,0,0-1.38-1.58,3.93,3.93,0,0,0-2.07-.57A2.83,2.83,0,0,0,684.1,380.81Z" transform="translate(-594.16 -353.4)"/><path class="cls-1" d="M698.12,390.89a5.73,5.73,0,0,1-2.45-2.47,7.62,7.62,0,0,1-.88-3.61,7.7,7.7,0,0,1,.88-3.68,5.59,5.59,0,0,1,2.45-2.41,7.51,7.51,0,0,1,3.58-.89,7.14,7.14,0,0,1,3.58.89,6,6,0,0,1,2.46,2.41,8.13,8.13,0,0,1,0,7.36,6.28,6.28,0,0,1-2.46,2.47,7.48,7.48,0,0,1-3.58.89A7.88,7.88,0,0,1,698.12,390.89Zm5.66-2.15a3.47,3.47,0,0,0,1.38-1.59,5.75,5.75,0,0,0,0-4.69,3.44,3.44,0,0,0-1.38-1.58,3.94,3.94,0,0,0-2.08-.57,3.76,3.76,0,0,0-2.07.57,3.33,3.33,0,0,0-1.38,1.58,5.65,5.65,0,0,0,0,4.69,3.71,3.71,0,0,0,1.38,1.59,3.93,3.93,0,0,0,2.07.57A3.8,3.8,0,0,0,703.78,388.74Z" transform="translate(-594.16 -353.4)"/><path class="cls-1" d="M713.39,378l.51,3.36-.57-.63a5,5,0,0,1,1.57-2,4.42,4.42,0,0,1,2.77-.69h.63v2.66H717a3,3,0,0,0-2.58,1.14,5.4,5.4,0,0,0-.82,3v6.85h-2.82V378Z" transform="translate(-594.16 -353.4)"/><path class="cls-1" d="M720.18,374.15H723V378h3.27v2.47H723v7.1a1.67,1.67,0,0,0,.31,1.15c.19.25.57.31,1.07.31h2.2v2.54h-2.76a3.83,3.83,0,0,1-2.77-.89,3.91,3.91,0,0,1-.88-2.79v-13.7Z" transform="translate(-594.16 -353.4)"/><path class="cls-1" d="M731.31,391a5.92,5.92,0,0,1-2.58-2.22,6.42,6.42,0,0,1-1-3.3h3A3.82,3.82,0,0,0,732,388.1a4.55,4.55,0,0,0,3.14,1,4.82,4.82,0,0,0,2.7-.7,2.38,2.38,0,0,0,1.07-2,2.09,2.09,0,0,0-.56-1.52,3.48,3.48,0,0,0-1.51-.82c-.63-.19-1.57-.38-2.77-.64H734a11.71,11.71,0,0,1-3-.82,5.59,5.59,0,0,1-2.07-1.59,4.65,4.65,0,0,1-.76-2.79,4.84,4.84,0,0,1,.82-2.85,6,6,0,0,1,2.33-2,8.34,8.34,0,0,1,3.39-.69,7.76,7.76,0,0,1,3.52.76,5.5,5.5,0,0,1,2.45,2,5,5,0,0,1,.94,3h-3a3.5,3.5,0,0,0-1.26-2.29,4.19,4.19,0,0,0-2.7-.88,4.48,4.48,0,0,0-2.58.69,2.31,2.31,0,0,0-.94,2,1.92,1.92,0,0,0,.57,1.46,4.35,4.35,0,0,0,1.5.82c.63.19,1.51.38,2.71.64a16.46,16.46,0,0,1,3.08.82,4.84,4.84,0,0,1,2.13,1.59,4.27,4.27,0,0,1,.82,2.79,5.27,5.27,0,0,1-.88,2.91,5.57,5.57,0,0,1-2.45,2,7.92,7.92,0,0,1-3.52.7A7.59,7.59,0,0,1,731.31,391Z" transform="translate(-594.16 -353.4)"/><path class="cls-1" d="M747.14,390.89a6.09,6.09,0,0,1-2.45-2.4,7.84,7.84,0,0,1-.88-3.68,7.6,7.6,0,0,1,.82-3.68,6.07,6.07,0,0,1,2.33-2.41,6.81,6.81,0,0,1,3.45-.89,7.63,7.63,0,0,1,3.46.76,5.42,5.42,0,0,1,2.33,2.29,7,7,0,0,1,.88,3.42v.51a1.6,1.6,0,0,1-.07.57H746.83v.12a5.06,5.06,0,0,0,.5,2,3.47,3.47,0,0,0,1.32,1.34,4,4,0,0,0,2,.5,3.5,3.5,0,0,0,2.2-.63A3,3,0,0,0,754,387h2.89a5.61,5.61,0,0,1-1.07,2.41,6.79,6.79,0,0,1-2.08,1.71,7,7,0,0,1-2.89.64A6.82,6.82,0,0,1,747.14,390.89Zm1.7-10.33a3.13,3.13,0,0,0-1.26,1.14,3.75,3.75,0,0,0-.62,1.65h7.22a3.44,3.44,0,0,0-1.13-2.35,3.65,3.65,0,0,0-2.51-.82A2.55,2.55,0,0,0,748.84,380.56Z" transform="translate(-594.16 -353.4)"/><path class="cls-1" d="M762.17,390.89a6,6,0,0,1-2.45-2.4,7.73,7.73,0,0,1-.88-3.68,7.6,7.6,0,0,1,.81-3.68,6.07,6.07,0,0,1,2.33-2.41,6.84,6.84,0,0,1,3.46-.89,7.56,7.56,0,0,1,3.45.76,5.42,5.42,0,0,1,2.33,2.29,7,7,0,0,1,.88,3.42v.51a1.6,1.6,0,0,1-.07.57H761.85v.12a5.06,5.06,0,0,0,.51,2,3.34,3.34,0,0,0,1.32,1.34,3.91,3.91,0,0,0,1.94.5,3.5,3.5,0,0,0,2.2-.63A3,3,0,0,0,769,387h2.89a5.49,5.49,0,0,1-1.07,2.41,6.87,6.87,0,0,1-2.07,1.71,7,7,0,0,1-2.89.64A6.93,6.93,0,0,1,762.17,390.89Zm1.69-10.33a3,3,0,0,0-1.25,1.14,3.65,3.65,0,0,0-.63,1.65h7.23a3.49,3.49,0,0,0-1.14-2.35,3.62,3.62,0,0,0-2.51-.82A2.56,2.56,0,0,0,763.86,380.56Z" transform="translate(-594.16 -353.4)"/><path class="cls-2" d="M623.7,411.11a28.86,28.86,0,1,0-28.6-28.85A28.72,28.72,0,0,0,623.7,411.11Z" transform="translate(-594.16 -353.4)"/><path class="cls-3" d="M636,369.83a4.82,4.82,0,1,0-4.77-4.82A4.8,4.8,0,0,0,636,369.83Z" transform="translate(-594.16 -353.4)"/><path d="M634.63,382.83a1.79,1.79,0,0,0,1.51.82,1.75,1.75,0,0,0,.94-.25l8.61-5.2a1.79,1.79,0,0,0,.63-2.47,1.76,1.76,0,0,0-2.45-.64l-7.16,4.31-3.46-6.78a32.11,32.11,0,0,0-3.08-2.73l-10.25-5.2a1.79,1.79,0,0,0-2,.26l-8.55,7.79a1.77,1.77,0,0,0-.12,2.54,1.72,1.72,0,0,0,2.51.13l7.73-7,5.35,2.73-9.18,14.33-20.93,25a2.34,2.34,0,0,0,.25,3.3,2.29,2.29,0,0,0,3.27-.25l20.3-23.65,8.74,2-6,9.45a2.31,2.31,0,0,0,.88,3.17,2.28,2.28,0,0,0,3-.69l7.67-12.24a2.41,2.41,0,0,0,.25-2.16,2.18,2.18,0,0,0-1.63-1.33l-6.73-1.59,6.1-9.63Z" transform="translate(-594.16 -353.4)"/></svg>