<svg id="Layer_1" data-name="Layer 1" xmlns="http://www.w3.org/2000/svg" viewBox="0 0 26.67 24"><defs><style>.cls-1{fill:#ff0101;}</style></defs><path class="cls-1" d="M680.33,378.67,676,383a7.54,7.54,0,0,1,1,.52,2.68,2.68,0,0,0,3.06,0,5.2,5.2,0,0,1,2.92-.86,5.11,5.11,0,0,1,2.91.86,2.51,2.51,0,0,0,1.53.48,2.48,2.48,0,0,0,1.54-.48l.54-.31L681,374.67c-2.06-2.06-4-2.68-7.3-2.66v3.33a6.57,6.57,0,0,1,5.33,2Zm16,11.34h0Zm-22.2-1.34a2.55,2.55,0,0,1,1.54.48,5.34,5.34,0,0,0,5.81,0,2.43,2.43,0,0,1,1.53-.48,2.55,2.55,0,0,1,1.54.48,5.34,5.34,0,0,0,5.81,0,2.43,2.43,0,0,1,1.53-.48,2.55,2.55,0,0,1,1.54.48,5.18,5.18,0,0,0,2.88.86v-2.67a2.55,2.55,0,0,1-1.54-.48,5.39,5.39,0,0,0-5.81,0,2.39,2.39,0,0,1-1.53.48,2.55,2.55,0,0,1-1.54-.48,5.39,5.39,0,0,0-5.81,0,2.37,2.37,0,0,1-1.53.48,2.55,2.55,0,0,1-1.54-.48,5.39,5.39,0,0,0-5.81,0,2.37,2.37,0,0,1-1.53.48V390a5.27,5.27,0,0,0,2.93-.86A2.45,2.45,0,0,1,674.13,388.67ZM691.89,392a5.08,5.08,0,0,0-2.9.85,2.42,2.42,0,0,1-1.54.48,2.51,2.51,0,0,1-1.53-.48A5.12,5.12,0,0,0,683,392a5.21,5.21,0,0,0-2.92.85,2.68,2.68,0,0,1-3.06,0,5.12,5.12,0,0,0-2.91-.85,5.18,5.18,0,0,0-2.92.85,2.37,2.37,0,0,1-1.53.48V396a5.2,5.2,0,0,0,2.92-.86,2.68,2.68,0,0,1,3.06,0,5.11,5.11,0,0,0,2.91.86,5.17,5.17,0,0,0,2.92-.86,2.43,2.43,0,0,1,1.53-.48,2.55,2.55,0,0,1,1.54.48,5.07,5.07,0,0,0,2.9.86,5.13,5.13,0,0,0,2.91-.86,2.43,2.43,0,0,1,1.53-.48,2.55,2.55,0,0,1,1.54.48,5.07,5.07,0,0,0,2.9.86v-2.67a2.37,2.37,0,0,1-1.53-.48A5.12,5.12,0,0,0,691.89,392Z" transform="translate(-669.67 -372.01)"/><path class="cls-1" d="M689,378.67a3.33,3.33,0,1,0-3.33-3.33A3.33,3.33,0,0,0,689,378.67Z" transform="translate(-669.67 -372.01)"/></svg>